# xmcd
#
# Track frame offsets: 
#        150
#        26437
#        40397
#        51660
#        65327
#        79310
#        94640
#        107587
#        118077
#        133020
#        150327
#        180240
#        195412
#
# Disc length: 2799 seconds
#
# Revision: 4
# Processed by: cddbd v1.5.2PL0 Copyright (c) Steve Scherf et al.
# Submitted via: ExactAudioCopyFreeDBPlugin 1.0
#
DISCID=a40aed0d
DTITLE=Louis Armstrong - The Best Of The Decca Years Volume 1 - The Si
DTITLE=nger
DYEAR=1956
DGENRE=Vocal Jazz
TTITLE0=On The Sunny Side Of The Street
TTITLE1=That Lucky Old Sun (Just Rolls Around Heaven All Day)
TTITLE2=Gone Fishin' (With Bing Crosby)
TTITLE3=A Kiss To Build A Dream On
TTITLE4=(I'll Be Glad When You're Dead) You Rascal You (With Louis Jor
TTITLE4=dan)
TTITLE5=La Vie En Rose
TTITLE6=Blueberry Hill
TTITLE7=In The Shade Of The Old Apple Tree (With The Mills Brothers)
TTITLE8=The Gypsy
TTITLE9=Lazy River
TTITLE10=I Surrender Dear
TTITLE11=It's All In The Game
TTITLE12=When It's Sleepy Time Down South
EXTD=
EXTT0=
EXTT1=
EXTT2=
EXTT3=
EXTT4=
EXTT5=
EXTT6=
EXTT7=
EXTT8=
EXTT9=
EXTT10=
EXTT11=
EXTT12=
PLAYORDER=
